<svg xmlns="http://www.w3.org/2000/svg" width="1168.973" height="958.193" viewBox="0 0 1168.973 958.193">
  <defs>
    <style>
      .cls-1 {
        fill: #7a8ca5;
      }

      .cls-2 {
        fill: #00beb9;
      }

      .cls-3 {
        fill: #fff;
      }

      .cls-4 {
        fill: #353537;
      }

      .cls-5 {
        fill: #00a49f;
      }

      .cls-6 {
        fill: #f065a6;
      }

      .cls-7 {
        fill: #5c78aa;
      }

      .cls-8 {
        fill: #e34932;
      }

      .cls-9 {
        fill: #f4eed8;
      }

      .cls-10 {
        fill: #0e0e15;
      }

      .cls-11 {
        fill: #ebe0be;
      }

      .cls-12 {
        fill: #ff6748;
      }

      .cls-13 {
        fill: #d5498f;
      }
    </style>
  </defs>
  <g id="_787" data-name="787" transform="translate(-31.81 -71.15)">
    <g id="Group_80" data-name="Group 80" transform="translate(31.81 71.15)">
      <g id="Group_79" data-name="Group 79">
        <path id="Path_1" data-name="Path 1" class="cls-1" d="M732.682,388.773s-156.9,10.983-350.436,10.983S31.81,388.773,31.81,388.773s156.9-10.983,350.436-10.983S732.682,388.773,732.682,388.773Z" transform="translate(-31.81 443.626)"/>
        <g id="Group_67" data-name="Group 67" transform="translate(53.929 119.768)">
          <g id="Group_26" data-name="Group 26" transform="translate(468.752 16.983)">
            <g id="Group_15" data-name="Group 15" transform="translate(0 0.134)">
              <rect id="Rectangle_3" data-name="Rectangle 3" class="cls-2" width="459.461" height="283.922"/>
              <rect id="Rectangle_4" data-name="Rectangle 4" class="cls-3" width="420.994" height="249.312" transform="translate(19.234 17.332)"/>
              <path id="Path_2" data-name="Path 2" class="cls-4" d="M502.888,309.871V192.327h-23.2V309.871H464.769V224.338H441.544v85.533H426.623V185.523h-23.2V309.871H388.5V167.414H365.28V309.871H350.359V224.338h-23.2v85.533h-18V149.44h-5.09V314.961H520.005v-5.09Z" transform="translate(-97.43 -76.604)"/>
              <rect id="Rectangle_5" data-name="Rectangle 5" class="cls-2" width="130.938" height="7.929" transform="translate(42.458 56.95)"/>
              <rect id="Rectangle_6" data-name="Rectangle 6" class="cls-2" width="130.938" height="7.929" transform="translate(42.458 79.613)"/>
              <rect id="Rectangle_7" data-name="Rectangle 7" class="cls-2" width="64.344" height="7.929" transform="translate(42.458 102.275)"/>
              <g id="Group_5" data-name="Group 5" transform="translate(92.846 201.095)">
                <path id="Path_3" data-name="Path 3" class="cls-2" d="M295.771,197.32v22.662L284.038,231.5H261.59V197.32Z" transform="translate(-261.59 -197.32)"/>
                <path id="Path_4" data-name="Path 4" class="cls-5" d="M281.7,205.78,269.97,217.3V205.78Z" transform="translate(-247.522 -183.118)"/>
              </g>
              <g id="Group_7" data-name="Group 7" transform="translate(43.771 201.095)">
                <g id="Group_6" data-name="Group 6">
                  <rect id="Rectangle_8" data-name="Rectangle 8" class="cls-6" width="34.181" height="34.181"/>
                </g>
              </g>
              <path id="Path_5" data-name="Path 5" class="cls-2" d="M474.568,172.345,454.853,177.3l5.3,5.465L436.262,205.91l-81.6-63.54L314.03,172.854l3.054,4.072L354.613,148.8l82,63.862,27.082-26.225L469,191.9Z" transform="translate(-80.71 -88.473)"/>
              <g id="Group_9" data-name="Group 9" transform="translate(42.458 133.858)">
                <path id="Path_6" data-name="Path 6" class="cls-7" d="M289.524,195.579a23.372,23.372,0,1,1-23.359-23.359A23.362,23.362,0,0,1,289.524,195.579Z" transform="translate(-242.78 -172.22)"/>
                <g id="Group_8" data-name="Group 8" transform="translate(6.965 6.911)">
                  <path id="Path_7" data-name="Path 7" class="cls-7" d="M261.8,174.8a16.421,16.421,0,1,0,16.421,16.421A16.423,16.423,0,0,0,261.8,174.8Zm-2.947,2.384a12.3,12.3,0,0,0-3.643,6,14.832,14.832,0,0,1-3.723-1.956A14.3,14.3,0,0,1,258.854,177.184Zm-8.385,5.224a15.731,15.731,0,0,0,4.313,2.3,27.036,27.036,0,0,0-.723,5.733h-6.617A14.276,14.276,0,0,1,250.47,182.408Zm-3.027,9.617h6.617a28.554,28.554,0,0,0,.75,5.893,16.172,16.172,0,0,0-4.286,2.223A14.5,14.5,0,0,1,247.443,192.024Zm4.125,9.322a15.269,15.269,0,0,1,3.67-1.9,12.231,12.231,0,0,0,3.59,5.867A14.579,14.579,0,0,1,251.568,201.347ZM261,204.668c-1.714-.509-3.215-2.679-4.206-5.706a20.952,20.952,0,0,1,4.206-.589Zm0-7.876a21.241,21.241,0,0,0-4.634.67,26.187,26.187,0,0,1-.7-5.411H261v4.741Zm0-6.349h-5.331a26.51,26.51,0,0,1,.67-5.25,21.729,21.729,0,0,0,4.661.67Zm0-6.188a19.674,19.674,0,0,1-4.259-.616c.964-3.107,2.518-5.331,4.259-5.84Zm15.135,6.188h-6.617a27.036,27.036,0,0,0-.723-5.733,15.731,15.731,0,0,0,4.313-2.3A14.083,14.083,0,0,1,276.132,190.444Zm-4.045-9.215a14.648,14.648,0,0,1-3.7,1.955,12.3,12.3,0,0,0-3.643-6A14.331,14.331,0,0,1,272.087,181.229Zm-9.51-3.429c1.741.536,3.268,2.732,4.259,5.84a19.668,19.668,0,0,1-4.259.616Zm0,8.063a21.487,21.487,0,0,0,4.661-.67,26.767,26.767,0,0,1,.67,5.25h-5.331Zm0,6.161h5.331a25.947,25.947,0,0,1-.7,5.411,21.241,21.241,0,0,0-4.634-.67v-4.741Zm0,12.644v-6.3a20.951,20.951,0,0,1,4.206.589C265.819,202.016,264.292,204.159,262.578,204.668Zm2.17.616a12.23,12.23,0,0,0,3.59-5.867,13.563,13.563,0,0,1,3.67,1.9A14.18,14.18,0,0,1,264.747,205.284Zm8.3-5.116a15.421,15.421,0,0,0-4.286-2.223,28.557,28.557,0,0,0,.75-5.893h6.616A14.458,14.458,0,0,1,273.052,200.168Z" transform="translate(-245.38 -174.8)"/>
                </g>
              </g>
              <g id="Group_10" data-name="Group 10" transform="translate(99.409 134.179)">
                <circle id="Ellipse_2" data-name="Ellipse 2" class="cls-8" cx="23.037" cy="23.037" r="23.037"/>
                <path id="Path_8" data-name="Path 8" class="cls-3" d="M295.589,187.207h-2.866a11.754,11.754,0,0,0-.938-2.25l2.009-2.009a1.407,1.407,0,0,0,0-2.009l-2.384-2.411a1.407,1.407,0,0,0-2.009,0l-2.009,2.009a10.418,10.418,0,0,0-2.25-.911V176.76a1.429,1.429,0,0,0-1.42-1.42h-3.4a1.429,1.429,0,0,0-1.42,1.42v2.866a11.651,11.651,0,0,0-2.25.911l-2.009-2.009a1.407,1.407,0,0,0-2.009,0l-2.384,2.411a1.407,1.407,0,0,0,0,2.009l2.009,2.009a10.412,10.412,0,0,0-.911,2.25H268.48a1.412,1.412,0,0,0-1.42,1.42v3.4a1.429,1.429,0,0,0,1.42,1.42h2.866a13.646,13.646,0,0,0,.911,2.25l-2.009,2.009a1.407,1.407,0,0,0,0,2.009l2.384,2.411a1.407,1.407,0,0,0,2.009,0l2.009-2.009a12.048,12.048,0,0,0,2.25.938V203.9a1.429,1.429,0,0,0,1.42,1.42h3.4a1.429,1.429,0,0,0,1.42-1.42v-2.866a11.748,11.748,0,0,0,2.25-.938L289.4,202.1a1.407,1.407,0,0,0,2.009,0l2.384-2.411a1.407,1.407,0,0,0,0-2.009l-2.009-2.009a12.04,12.04,0,0,0,.938-2.25h2.866a1.429,1.429,0,0,0,1.42-1.42v-3.4A1.424,1.424,0,0,0,295.589,187.207Zm-13.581,9.108a5.974,5.974,0,1,1,5.974-5.974A5.979,5.979,0,0,1,282.008,196.315Z" transform="translate(-258.97 -167.304)"/>
              </g>
              <g id="Group_14" data-name="Group 14" transform="translate(162.36 137.715)">
                <g id="Group_11" data-name="Group 11">
                  <rect id="Rectangle_9" data-name="Rectangle 9" class="cls-4" width="9.59" height="9.59"/>
                  <rect id="Rectangle_10" data-name="Rectangle 10" class="cls-4" width="9.59" height="9.59" transform="translate(15.59)"/>
                </g>
                <g id="Group_12" data-name="Group 12" transform="translate(0 14.68)">
                  <rect id="Rectangle_11" data-name="Rectangle 11" class="cls-4" width="9.59" height="9.59"/>
                  <rect id="Rectangle_12" data-name="Rectangle 12" class="cls-6" width="9.59" height="9.59" transform="translate(15.59)"/>
                </g>
                <g id="Group_13" data-name="Group 13" transform="translate(0 29.386)">
                  <rect id="Rectangle_13" data-name="Rectangle 13" class="cls-6" width="9.59" height="9.59"/>
                  <rect id="Rectangle_14" data-name="Rectangle 14" class="cls-6" width="9.59" height="9.59" transform="translate(15.59)"/>
                </g>
              </g>
            </g>
            <g id="Group_23" data-name="Group 23" transform="translate(358.633 115.594)">
              <g id="Group_16" data-name="Group 16" transform="translate(2.357)">
                <path id="Path_9" data-name="Path 9" class="cls-7" d="M490.057,333.436a267.058,267.058,0,0,1-35.172-.188,55.849,55.849,0,0,1-29.975-10.9,77.544,77.544,0,0,1-16.93-17.3A133.877,133.877,0,0,1,392.6,276.781a226.137,226.137,0,0,1-9.644-30.163c-.83-3.215-1.5-6.322-2.116-9.269-.482-2.25-.911-4.447-1.313-6.536-.188-1.045-.4-2.063-.563-3.081-.348-2.009-.7-3.884-.991-5.706-.134-1.045-.295-2.036-.429-2.947-1.205-8.143-1.58-13.233-1.58-13.233a64.761,64.761,0,0,1-7.956-7.1v-.027c-4.581-4.9-6.349-9.108-6.322-12.563,0-.321.027-.7.054-1.018a9.316,9.316,0,0,1,1.313-3.831,3.845,3.845,0,0,1,.322-.563,15.956,15.956,0,0,1,5.438-4.768c.268-.161.536-.321.777-.455.455-.241.884-.455,1.339-.643.7-.295,1.339-.589,2.036-.857.027,0,.107-.027.134-.027a27.351,27.351,0,0,1,9.8-1.795,4.342,4.342,0,0,1,.589.027c8.117.991,6.483,12.51,6.483,12.51,4.34,2.6,4.018,7.768,2.813,12.054a33.584,33.584,0,0,1-2.813,6.7s.107.455.295,1.286c.027.241.107.455.161.723a5.959,5.959,0,0,0,.188.83c.616,2.625,1.714,6.884,3.295,12.081.4,1.366.857,2.786,1.339,4.259.938,2.866,2.063,6,3.268,9.188a167.732,167.732,0,0,0,7.554,16.957c4.313,8.358,9.563,16.448,15.858,22.93.4.429.83.857,1.232,1.232a44.59,44.59,0,0,0,17.01,10.822c.188.054.429.134.616.188a53.068,53.068,0,0,0,19.233,2.3c13.555-.7,26.734-5.652,37.128-10.956.295-.134.589-.295.884-.429,4.929-2.545,9.215-5.143,12.59-7.34,3.8-2.491,6.4-4.447,7.474-5.277.321-.241.482-.348.482-.348l.054.589.562,6.8,1.018,11.572,3.348,39.11C523.7,319.989,524.264,331,490.057,333.436Z" transform="translate(-361.69 -153.885)"/>
                <path id="Path_10" data-name="Path 10" class="cls-9" d="M390,214.93a34.266,34.266,0,0,0,2.813-6.724h0c7.474-2.3,3.563-21.377.295-24.591-2.438-2.384-5.84-.75-7.474.241-1.634-3.188-10.447-19.957-15.323-18.4-3.59,1.125.027,12.563,2.813,20.01-10.474,3.831-20.546,13.849,2.84,31.877a259.049,259.049,0,0,0,4.849,31.475,101.338,101.338,0,0,0,17.787-5.545A203.2,203.2,0,0,1,390,214.93Z" transform="translate(-361.66 -165.352)"/>
              </g>
              <path id="Path_11" data-name="Path 11" class="cls-9" d="M486.148,267.167l-33.324,26.681-6.75,5.384-6.643-7.608,14.439-18.35,15.992-20.3Z" transform="translate(-228.826 -18.263)"/>
              <path id="Path_12" data-name="Path 12" class="cls-7" d="M535.046,315.874c-4.179,33.109-22.93,42.887-22.93,42.887l-7.072-6.188-16.287-14.2s15.323-12.349,12.751-24.645c-1.714-8.224-17.439-25.529-27.672-36.137-5.116-5.3-8.867-8.894-8.867-8.894l-26.734-53.495-.7-.884-8.117-10.608-1.232-1.634s.482.027,1.339.161c.884.107,2.116.268,3.7.455h.027c.027,0,.107,0,.134.027,12.965,1.795,46.1,7.634,54.941,20.519C499.365,239.449,539.251,282.738,535.046,315.874Z" transform="translate(-247.695 -103.695)"/>
              <g id="Group_22" data-name="Group 22" transform="translate(0 10.307)">
                <g id="Group_21" data-name="Group 21">
                  <g id="Group_20" data-name="Group 20">
                    <g id="Group_19" data-name="Group 19">
                      <g id="Group_17" data-name="Group 17" transform="translate(0 249.741)">
                        <path id="Path_13" data-name="Path 13" class="cls-1" d="M648.456,384.9a1142.43,1142.43,0,0,1-143.823,9.135A1142.43,1142.43,0,0,1,360.81,384.9a1133.5,1133.5,0,0,1,287.646,0Z" transform="translate(-360.81 -72.209)"/>
                        <path id="Path_14" data-name="Path 14" class="cls-3" d="M465.381,370.98l1.286,7.8,1.768,10.608L423.994,400.42a2.781,2.781,0,0,1-2.947-4.313,51.146,51.146,0,0,1,8.465-8.626,139.764,139.764,0,0,1,16.93-11.76Z" transform="translate(-260.589 -80.2)"/>
                        <path id="Path_15" data-name="Path 15" class="cls-3" d="M439.788,370.98l-.509,7.876-.67,10.715-45.78.8a2.785,2.785,0,0,1-1.9-4.875,49.482,49.482,0,0,1,10.206-6.509,138.8,138.8,0,0,1,19.126-7.661Z" transform="translate(-311.851 -80.2)"/>
                        <path id="Path_16" data-name="Path 16" class="cls-10" d="M514.905,286.86c-2.009,20.492-8.09,74.577-20.225,123.812L510.324,556.4l-1.473.161-20.707,2.089-2.331.241s-25.368-95.659-32.681-118.133c-8.251-25.234,0-87.622,0-87.622s-21.7,47.869-21.7,70.88c0,23.037,2.6,129.679,2.6,129.679s-1.018.295-2.652.643c-4.741.991-14.814,2.625-21.082-.241-.295-.134-.563-.295-.83-.429-8.17-4.554-14.519-142.108-14.519-142.108l29.493-138.385,2.3-10.742s42.592,11.358,88.962,15.912C515.709,278.342,515.441,281.422,514.905,286.86Z" transform="translate(-303.497 -262.43)"/>
                      </g>
                      <path id="Path_17" data-name="Path 17" class="cls-7" d="M515.345,351.018l-14.439,18.323,6.643,7.634,6.75-5.411c-.161,2.384-.295,4.286-.4,5.572a113.509,113.509,0,0,1-12.162,3.349c.536-5.438.777-8.518.777-8.518-46.369-4.554-88.962-15.912-88.962-15.912l-2.3,10.742c-2.893-1.634-5.706-3.429-8.438-5.331,10.983-18.43,25.261-50.655,18.216-85.828v-.054c34.208-2.464,33.645-13.447,33.645-13.447l-3.349-39.11,8.438,12.108s19.046-14.626,20.359-28.475l.7.884,26.734,53.495s3.75,3.59,8.867,8.894C517.22,294.39,516.309,327.66,515.345,351.018Z" transform="translate(-290.302 -106.313)"/>
                      <path id="Path_18" data-name="Path 18" class="cls-7" d="M410.991,283.234c-5.518-27.645.241-46.4,7.233-58.156.268-.455.536-.884.83-1.313v-.027a54.736,54.736,0,0,1,11.09-12.831c.027-.027.053-.027.107-.054.268-.187.455-.348.7-.536l.053-.054c1.286-.991,2.036-1.447,2.036-1.447a18.839,18.839,0,0,0,1.607,1.071,30.7,30.7,0,0,0,4.554,2.17,3.55,3.55,0,0,0,.563.241c6.3,2.2,15.51,2.545,21-10.206a12.643,12.643,0,0,1,1.339.027,25.234,25.234,0,0,1,3.7.589h.027c.027,0,.107,0,.134.027,9.027,2.063,27.591,10.8,37.663,47.093,1.5,5.438,2.357,15.483,2.786,27.779-5.116-5.3-8.867-8.894-8.867-8.894L470.808,215.22l-.7-.884c-1.313,13.849-20.359,28.475-20.359,28.475L441.315,230.7l3.348,39.11C444.636,269.787,445.2,280.8,410.991,283.234Z" transform="translate(-280.267 -113.99)"/>
                      <path id="Path_19" data-name="Path 19" class="cls-7" d="M408.254,262.44s42.592,11.358,88.962,15.912c0,0-.268,3.081-.777,8.518a126.879,126.879,0,0,1-90.489-13.688Z" transform="translate(-285.031 -12.672)"/>
                      <path id="Path_20" data-name="Path 20" class="cls-7" d="M439.43,278.883l14.439-18.323c-.348,8.438-.75,15.617-1.045,20.546l-6.75,5.411Z" transform="translate(-228.826 -15.828)"/>
                      <path id="Path_21" data-name="Path 21" class="cls-3" d="M463.65,218.759c-1.312,13.849-20.359,28.475-20.359,28.475l-8.438-12.108-2.813-4.018-11.572,13.313s-7.259-9.027-7.8-15.323a5.049,5.049,0,0,1-.054-.884v-.027c.107-5.3,8.465-11.117,11.09-12.831.027-.027.054-.027.107-.054.429-.268.7-.429.7-.429a.861.861,0,0,0,.054-.161,28.675,28.675,0,0,1,4.259-8.224c.134-.188.295-.348.455-.563,3.161-3.938,8.144-7.42,15.51-6.242a18.26,18.26,0,0,1,2.17.536,31.856,31.856,0,0,1,8.733,4.045,22.1,22.1,0,0,1,3.67,2.866h.027A13.808,13.808,0,0,1,463.65,218.759Z" transform="translate(-273.833 -118.412)"/>
                      <g id="Group_18" data-name="Group 18" transform="translate(127.511)">
                        <path id="Path_22" data-name="Path 22" class="cls-9" d="M409.8,197.113s-8.84,49.128,18.055,48.62,36.886-19.85,34.985-31.449c-1.875-11.626-3.456-34.69-26.52-37.5C413.284,173.942,409.8,197.113,409.8,197.113Z" transform="translate(-408.411 -156.878)"/>
                        <path id="Path_23" data-name="Path 23" class="cls-10" d="M484.6,198.533c-1.768-3.509-5.116-5.92-8.411-8.09.027-.027.053-.054.053-.08a15.075,15.075,0,0,0-1.232-6.509,21.6,21.6,0,0,0-3.911-5.786,23.8,23.8,0,0,1,0,8.492c-1.152-2.732-2.384-5.545-4.5-7.635a18.494,18.494,0,0,0-5.2-3.322,51.917,51.917,0,0,0-27.484-4.581,39.633,39.633,0,0,1-6.4.482,8.851,8.851,0,0,1-5.867-2.3c1.072,2.786,2.759,6.134,5.117,7.983C406.808,184.067,409.7,203.3,409.7,203.3c6.509-2.518,13.26.75,13.26.75-.723,17.975,32.6,26.52,32.6,26.52,4.929-4.715,11.733-1.9,11.733-1.9,3.965,2.732,3.965,6.027,3.965,6.027,7.554-5.438,9.376-32.9,9.376-32.9a9.092,9.092,0,0,1,5.893.4A22.638,22.638,0,0,1,484.6,198.533Z" transform="translate(-406.489 -169.2)"/>
                        <path id="Path_24" data-name="Path 24" class="cls-9" d="M426.132,201.192a8.889,8.889,0,1,0,7.34-10.206A8.869,8.869,0,0,0,426.132,201.192Z" transform="translate(-378.854 -132.83)"/>
                        <path id="Path_25" data-name="Path 25" class="cls-9" d="M446.554,193.75l1.071,6.643s.134,1.205.295,3.161c.214,2.572.482,6.375.429,10.286-.027,6.054-.67,12.349-3.027,14.519-4.983,4.634-23.975,5.545-26.627,4.34-.83-.375-1.286-3.777-1.527-8.251-.107-2.384-.188-5.063-.188-7.768h.027c-.054-8.2.268-16.421.268-16.421Z" transform="translate(-394.025 -127.986)"/>
                        <path id="Path_26" data-name="Path 26" class="cls-11" d="M447.92,197.41c.214,2.572.482,6.375.429,10.286-7.5,3.456-22.689,10.019-31.181,10.581-.107-2.384-.187-5.063-.187-7.768h.027C417.837,210.348,444.571,204.857,447.92,197.41Z" transform="translate(-394.025 -121.842)"/>
                      </g>
                    </g>
                  </g>
                </g>
              </g>
            </g>
            <g id="Group_25" data-name="Group 25" transform="translate(509.313)">
              <path id="Path_27" data-name="Path 27" class="cls-2" d="M527.023,122.2H426.945a9.872,9.872,0,0,0-9.885,9.858v71.5a9.855,9.855,0,0,0,9.885,9.858h5.384v24.752l24.725-24.752h69.969a9.872,9.872,0,0,0,9.885-9.858v-71.5A9.872,9.872,0,0,0,527.023,122.2Z" transform="translate(-417.06 -122.2)"/>
              <g id="Group_24" data-name="Group 24" transform="translate(13.903 14.09)">
                <rect id="Rectangle_15" data-name="Rectangle 15" class="cls-3" width="92.042" height="8.17"/>
                <rect id="Rectangle_16" data-name="Rectangle 16" class="cls-3" width="92.042" height="8.17" transform="translate(0 18.296)"/>
                <rect id="Rectangle_17" data-name="Rectangle 17" class="cls-3" width="92.042" height="8.17" transform="translate(0 36.592)"/>
                <rect id="Rectangle_18" data-name="Rectangle 18" class="cls-3" width="49.477" height="8.17" transform="translate(0 54.888)"/>
              </g>
            </g>
          </g>
          <g id="Group_37" data-name="Group 37" transform="translate(366.769 518.796)">
            <g id="Group_31" data-name="Group 31" transform="translate(48.648 45.271)">
              <path id="Path_28" data-name="Path 28" class="cls-4" d="M329.413,342.5H215.056a8.025,8.025,0,0,1-8.036-8.036h0a8.043,8.043,0,0,1,8.036-8.036H329.413a8.025,8.025,0,0,1,8.036,8.036h0A8.008,8.008,0,0,1,329.413,342.5Z" transform="translate(-207.02 -326.43)"/>
              <g id="Group_27" data-name="Group 27" transform="translate(53.334 16.073)">
                <rect id="Rectangle_19" data-name="Rectangle 19" class="cls-11" width="15.537" height="78.515" transform="translate(3.991 12.644)"/>
                <rect id="Rectangle_20" data-name="Rectangle 20" class="cls-9" width="23.787" height="30.591"/>
              </g>
              <g id="Group_30" data-name="Group 30" transform="translate(15.135 103.561)">
                <g id="Group_29" data-name="Group 29">
                  <rect id="Rectangle_21" data-name="Rectangle 21" class="cls-4" width="93.81" height="9.858" transform="translate(3.188)"/>
                  <g id="Group_28" data-name="Group 28" transform="translate(0 9.884)">
                    <path id="Path_29" data-name="Path 29" class="cls-11" d="M229.6,377.245a8.465,8.465,0,1,1-8.465-8.465A8.483,8.483,0,0,1,229.6,377.245Z" transform="translate(-212.67 -368.78)"/>
                    <path id="Path_30" data-name="Path 30" class="cls-11" d="M260.68,377.245a8.465,8.465,0,1,1-8.465-8.465A8.483,8.483,0,0,1,260.68,377.245Z" transform="translate(-160.494 -368.78)"/>
                  </g>
                </g>
              </g>
            </g>
            <g id="Group_36" data-name="Group 36" transform="translate(0)">
              <path id="Path_31" data-name="Path 31" class="cls-7" d="M411.44,338.97c-1.125-23.787-62.281-29.44-62.281-29.44-2.679,0-28.448.161-48.995.295-20.546-.134-46.289-.295-48.995-.295,0,0-61.156,5.679-62.281,29.44-1.125,23.787,31.154,147.707,31.154,147.707h26.6s2.277-123.92-4.527-128.447c0,0,32.815-.536,58.049-2.732,25.234,2.2,58.049,2.732,58.049,2.732-6.8,4.527-4.527,128.447-4.527,128.447h26.627C380.286,486.677,412.565,362.757,411.44,338.97Z" transform="translate(-188.859 -309.53)"/>
              <g id="Group_33" data-name="Group 33" transform="translate(8.849 177.173)">
                <g id="Group_32" data-name="Group 32">
                  <path id="Path_32" data-name="Path 32" class="cls-4" d="M237.989,375.67l-.589,7.206-.161,2.143-.616,7.634h-41.9a2.54,2.54,0,0,1-1.661-4.474c.589-.482,1.232-.991,1.929-1.473a55.651,55.651,0,0,1,7.5-4.34,126.458,126.458,0,0,1,17.626-6.7Z" transform="translate(-192.163 -375.67)"/>
                </g>
                <path id="Path_33" data-name="Path 33" class="cls-3" d="M237.239,379.16l-.616,7.634h-41.9a2.54,2.54,0,0,1-1.661-4.474c.589-.482,1.232-.991,1.929-1.473A245.574,245.574,0,0,0,237.239,379.16Z" transform="translate(-192.163 -369.811)"/>
              </g>
              <g id="Group_35" data-name="Group 35" transform="translate(170.344 177.173)">
                <g id="Group_34" data-name="Group 34">
                  <path id="Path_34" data-name="Path 34" class="cls-4" d="M252.45,375.67l.589,7.206.161,2.143.616,7.634h41.9a2.54,2.54,0,0,0,1.661-4.474c-.589-.482-1.232-.991-1.929-1.473a55.652,55.652,0,0,0-7.5-4.34,126.457,126.457,0,0,0-17.626-6.7Z" transform="translate(-252.45 -375.67)"/>
                </g>
                <path id="Path_35" data-name="Path 35" class="cls-3" d="M252.73,379.16l.616,7.634h41.9a2.54,2.54,0,0,0,1.661-4.474c-.589-.482-1.232-.991-1.929-1.473A245.646,245.646,0,0,1,252.73,379.16Z" transform="translate(-251.98 -369.811)"/>
              </g>
            </g>
          </g>
          <g id="Group_43" data-name="Group 43" transform="translate(360.3 270.823)">
            <path id="Path_36" data-name="Path 36" class="cls-2" d="M332.236,418.922l-.964.455a150.478,150.478,0,0,1-125.9,2.063S208.4,376.731,217.5,323.37a732.41,732.41,0,0,1,15.858-72.487l.054-.027a.1.1,0,0,1,.08-.027c1.447-.563,2.92-1.1,4.393-1.58a92.569,92.569,0,0,1,58.129-.08c1.607.536,3.161,1.1,4.768,1.714C322.566,328.621,332.236,418.922,332.236,418.922Z" transform="translate(-154.672 -170.681)"/>
            <g id="Group_38" data-name="Group 38" transform="translate(0 80.175)">
              <path id="Path_37" data-name="Path 37" class="cls-5" d="M265.215,246.89l-.054.027A724.855,724.855,0,0,0,249.3,319.4c-10.019,7.447-22.555,18.055-24.618,26.038-1.152,4.393,3.563,8.063,10.42,11.037l-6.3,22.1h-14.2s-29.788-9.081-28.1-33.672,48.378-77.577,55.049-86.926C244.83,253.346,255.358,249.542,265.215,246.89Z" transform="translate(-186.444 -246.89)"/>
              <path id="Path_38" data-name="Path 38" class="cls-9" d="M247.093,309.89V297.166s-24.109-3.134-38.547-9.376l-6.3,22.1Z" transform="translate(-159.91 -178.229)"/>
            </g>
            <g id="Group_39" data-name="Group 39" transform="translate(137.168 80.175)">
              <path id="Path_39" data-name="Path 39" class="cls-5" d="M240.79,246.89l.536.027c6.643,23.787,11.385,48.968,15.4,72.487,10.019,7.447,22.555,18.055,24.618,26.038,1.152,4.393-3.563,8.063-10.42,11.037l6.3,22.1h14.2s29.788-9.081,28.1-33.672S271.14,267.329,264.47,257.98C261.175,253.346,250.648,249.542,240.79,246.89Z" transform="translate(-232.379 -246.89)"/>
              <path id="Path_40" data-name="Path 40" class="cls-9" d="M237.65,309.89V297.166s24.109-3.134,38.547-9.376l6.3,22.1Z" transform="translate(-237.65 -178.229)"/>
            </g>
            <rect id="Rectangle_22" data-name="Rectangle 22" class="cls-4" width="118.08" height="77.389" transform="translate(58.734 134.447)"/>
            <g id="Group_42" data-name="Group 42" transform="translate(74.405)">
              <path id="Path_41" data-name="Path 41" class="cls-9" d="M275.622,249.148c-1.313,8.063-6.509,23.787-27.189,23.787-20.653,0-28.341-15.617-30.913-23.707q2.692-.884,5.465-1.607a92.408,92.408,0,0,1,47.95.134C272.488,248.157,274.069,248.639,275.622,249.148Z" transform="translate(-208.68 -170.687)"/>
              <g id="Group_41" data-name="Group 41">
                <path id="Path_42" data-name="Path 42" class="cls-11" d="M267.5,247.753c-5.6,6.027-15.189,14.331-25.743,14.6-12.269.295-19.341-9.536-22.207-14.706A92.124,92.124,0,0,1,267.5,247.753Z" transform="translate(-205.272 -170.685)"/>
                <g id="Group_40" data-name="Group 40">
                  <path id="Path_43" data-name="Path 43" class="cls-9" d="M276.886,259.074c0,20.841-13.367,37.744-29.868,37.744s-29.868-16.9-29.868-37.744,13.367-37.744,29.868-37.744C263.519,221.357,276.886,238.233,276.886,259.074Z" transform="translate(-209.301 -209.624)"/>
                  <path id="Path_44" data-name="Path 44" class="cls-9" d="M232.061,243.66a8.92,8.92,0,1,1-8.92-8.92A8.917,8.917,0,0,1,232.061,243.66Z" transform="translate(-214.22 -187.112)"/>
                  <path id="Path_45" data-name="Path 45" class="cls-9" d="M253.961,243.66a8.92,8.92,0,1,1-8.92-8.92A8.917,8.917,0,0,1,253.961,243.66Z" transform="translate(-177.455 -187.112)"/>
                  <path id="Path_46" data-name="Path 46" class="cls-7" d="M284.172,265.2c-.375,2.84-5.2,3.054-4.527,5.813-.8-2.3-2.25-5.625-4.045-7.286a15.114,15.114,0,0,0-11.572-14.251c-4.688-1.018-9.563.321-14.358.08a22.132,22.132,0,0,1-14.921-6.992c-6.643,8.224-11.706,18.537-11.867,29.091a9.613,9.613,0,0,0-5.465-5.733s-7.34-24.323,2.438-29.279c0,0-4.1-12.028,12.028-14.3s44.307,5.224,48.995-5.384c0,0,6.509,17.278,0,21.377C280.877,238.39,287.762,238.229,284.172,265.2Z" transform="translate(-213.292 -216.96)"/>
                </g>
              </g>
            </g>
          </g>
          <path id="Path_47" data-name="Path 47" class="cls-12" d="M181.232,274.629c.536-11.786,7.742-22.957,6.188-34.663-2.813-21.028-33.136-34.288-51.861-28.288-6.724,2.143-11.6,7.125-14.894,13.1a51.066,51.066,0,0,0-11.76,21.082c-1.956,7.581-.75,15.215-.429,22.9a45.6,45.6,0,0,1-.348,7.715,32.044,32.044,0,0,1-4.42,6.617c-3.268,3.723-7.527,6.4-10.983,9.938-4.393,4.5-7.34,10.179-9.8,15.965-3.509,8.251-6.134,17.6-3.348,26.118,2.759,8.438,10.367,14.412,18.242,18.537a81.6,81.6,0,0,0,48.7,8.465c10.26-1.42,20.6-5.036,27.94-12.349,7.206-7.179,10.9-17.3,11.867-27.431s-.616-20.305-2.732-30.243C182.357,286.389,180.937,280.549,181.232,274.629Zm-70.693-4.018c0-3.536-.188-7.152-.429-10.822a43.654,43.654,0,0,1,7.447-27.913c-.188.589-.375,1.179-.536,1.741C113.566,245.618,114.263,259.012,110.539,270.611Z" transform="translate(-7.519 42.563)"/>
          <g id="Group_56" data-name="Group 56" transform="translate(0 329.14)">
            <g id="Group_45" data-name="Group 45" transform="translate(0 61.397)">
              <g id="Group_44" data-name="Group 44" transform="translate(0 34.235)">
                <path id="Path_48" data-name="Path 48" class="cls-9" d="M105.137,443.808c-24.564-2.786-40.878-12.671-48.432-29.359-21.885-48.271,38.6-136.3,41.173-140.019l6.965,4.849c-.616.857-60.326,87.756-40.423,131.661,6.242,13.8,20.278,21.993,41.655,24.43Z" transform="translate(-51.942 -274.43)"/>
              </g>
              <path id="Path_49" data-name="Path 49" class="cls-4" d="M149.8,351.121H82.058a21.693,21.693,0,0,1-21.7-21.7V283.348a21.71,21.71,0,0,1,21.7-21.7H149.8Z" transform="translate(-37.81 -261.65)"/>
              <path id="Path_50" data-name="Path 50" class="cls-4" d="M182.779,349.413H68.4a8.025,8.025,0,0,1-8.036-8.036h0A8.026,8.026,0,0,1,68.4,333.34H182.753a8.026,8.026,0,0,1,8.036,8.036h0A8,8,0,0,1,182.779,349.413Z" transform="translate(-37.81 -141.299)"/>
            </g>
            <g id="Group_51" data-name="Group 51" transform="translate(47.302)">
              <g id="Group_47" data-name="Group 47" transform="translate(38.172 197.444)">
                <path id="Path_51" data-name="Path 51" class="cls-7" d="M87.279,367.708s59.415,2.706,78.113,0L147.551,481.877h23.2S220.6,344.59,203.617,327.607,133.112,312.5,133.112,312.5L83.85,337.813Z" transform="translate(-83.85 -312.437)"/>
                <g id="Group_46" data-name="Group 46" transform="translate(67.532 169.359)">
                  <path id="Path_52" data-name="Path 52" class="cls-4" d="M109.06,375.66l.589,7.206.777,9.8h41.9a2.553,2.553,0,0,0,1.661-4.5,46.251,46.251,0,0,0-9.429-5.786,126.45,126.45,0,0,0-17.626-6.7H109.06Z" transform="translate(-109.06 -375.66)"/>
                  <path id="Path_53" data-name="Path 53" class="cls-9" d="M109.06,375.66l.589,7.206a31.29,31.29,0,0,0,8.706,3.107,67.9,67.9,0,0,0,14.76,1.072c4.42-.027,8.974-1.152,11.438-4.688a126.459,126.459,0,0,0-17.626-6.7Z" transform="translate(-109.06 -375.66)"/>
                </g>
              </g>
              <path id="Path_54" data-name="Path 54" class="cls-5" d="M121.56,238.73s12.7,5.331,18.35,30.27c5.652,24.912,10.206,84.944,10.206,84.944l41.869,13.742.589,19.1-84.944,4.179,2.277-73.854Z" transform="translate(-5.757 -238.73)"/>
              <g id="Group_49" data-name="Group 49" transform="translate(5.238 175.575)">
                <g id="Group_48" data-name="Group 48" transform="translate(218.76 154.413)">
                  <path id="Path_55" data-name="Path 55" class="cls-4" d="M153.22,367.176l2.679,6.7,3.616,9.135,40.048-12.322a2.556,2.556,0,0,0,.268-4.795,46.371,46.371,0,0,0-10.715-2.759,128.287,128.287,0,0,0-18.832-1.206Z" transform="translate(-153.22 -361.917)"/>
                  <path id="Path_56" data-name="Path 56" class="cls-9" d="M153.22,367.176l2.679,6.7a32.385,32.385,0,0,0,9.242.429,69.6,69.6,0,0,0,14.439-3.322c4.232-1.339,8.224-3.75,9.536-7.849a128.3,128.3,0,0,0-18.832-1.206Z" transform="translate(-153.22 -361.917)"/>
                </g>
                <path id="Path_57" data-name="Path 57" class="cls-7" d="M74.541,305.229S59.754,367.939,96,379.538s138.813-32.949,138.813-32.949l51.513,118.482,24.912-6.8S281.8,307.292,262.537,305.2s-80.416,0-80.416,0H74.541Z" transform="translate(-71.556 -304.273)"/>
              </g>
              <path id="Path_58" data-name="Path 58" class="cls-2" d="M185.4,415.217l-9.4,1.714-26.868,4.875L69.6,436.218s33.136-91.024,35.253-102.945,2.411-44.682.161-60.674c-2.277-15.992,22.877-33.86,22.877-33.86h57.54c.161.161.295.348.455.536C215.673,274.18,185.4,415.217,185.4,415.217Z" transform="translate(-69.6 -238.713)"/>
              <path id="Path_59" data-name="Path 59" class="cls-7" d="M132.655,416.948l-26.868,4.875C123.279,304.494,95.42,238.73,95.42,238.73h46.637c.161.161.295.348.455.536C159.71,261.232,136.994,392.759,132.655,416.948Z" transform="translate(-26.254 -238.73)"/>
              <path id="Path_60" data-name="Path 60" class="cls-9" d="M95.42,238.73s16.715,25.716,34.824,20.037c18.108-5.652,11.813-20.037,11.813-20.037Z" transform="translate(-26.254 -238.73)"/>
              <g id="Group_50" data-name="Group 50" transform="translate(20.011)">
                <path id="Path_61" data-name="Path 61" class="cls-9" d="M216.324,301.8c-4.206-3.723-12.671-14.117-19.287-14.921-3.214-.4-23.493,7.742-23.493,7.742s-34.931-1.554-67.264-3.8l-1.661,19.5c22.743-.348,48.727-.911,70.291-1.714,16.019,4.393,32.493.589,40.369-1.848A2.926,2.926,0,0,0,216.324,301.8Z" transform="translate(-30.821 -157.923)"/>
                <path id="Path_62" data-name="Path 62" class="cls-5" d="M115.322,238.73s-28.877,9.3-35.119,43.289c-6.242,33.967-2.839,113.258,7.367,118.91s71.362-2.839,71.362-2.839V370.338L118,368.061C118.028,368.114,141.387,259.437,115.322,238.73Z" transform="translate(-77.07 -238.73)"/>
              </g>
            </g>
            <g id="Group_52" data-name="Group 52" transform="translate(75.884 269.51)">
              <rect id="Rectangle_23" data-name="Rectangle 23" class="cls-11" width="15.537" height="78.515" transform="translate(3.991 12.644)"/>
              <rect id="Rectangle_24" data-name="Rectangle 24" class="cls-9" width="23.787" height="30.591"/>
            </g>
            <g id="Group_55" data-name="Group 55" transform="translate(37.685 357.026)">
              <g id="Group_54" data-name="Group 54">
                <rect id="Rectangle_25" data-name="Rectangle 25" class="cls-4" width="93.81" height="9.858" transform="translate(3.188)"/>
                <g id="Group_53" data-name="Group 53" transform="translate(0 9.858)">
                  <path id="Path_63" data-name="Path 63" class="cls-11" d="M82.94,384.155a8.465,8.465,0,1,1-8.465-8.465A8.466,8.466,0,0,1,82.94,384.155Z" transform="translate(-66.01 -375.69)"/>
                  <path id="Path_64" data-name="Path 64" class="cls-11" d="M114.02,384.155a8.465,8.465,0,1,1-8.465-8.465A8.466,8.466,0,0,1,114.02,384.155Z" transform="translate(-13.834 -375.69)"/>
                </g>
              </g>
            </g>
          </g>
          <g id="Group_57" data-name="Group 57" transform="translate(157.078 482.659)">
            <rect id="Rectangle_26" data-name="Rectangle 26" class="cls-12" width="566.558" height="12.403"/>
            <rect id="Rectangle_27" data-name="Rectangle 27" class="cls-8" width="535.136" height="13.93" transform="translate(15.724 12.429)"/>
          </g>
          <g id="Group_58" data-name="Group 58" transform="translate(186.196 508.992)">
            <path id="Path_65" data-name="Path 65" class="cls-4" d="M131.978,520.787,154.613,305.87H137.63L121.45,520.787Z" transform="translate(-121.45 -305.87)"/>
            <path id="Path_66" data-name="Path 66" class="cls-4" d="M331.993,520.787,315.813,305.87H298.83l22.636,214.917Z" transform="translate(176.329 -305.87)"/>
          </g>
          <g id="Group_59" data-name="Group 59" transform="translate(184.428 405.27)">
            <rect id="Rectangle_28" data-name="Rectangle 28" class="cls-4" width="66.648" height="8.358" transform="translate(0 69.032)"/>
            <path id="Path_67" data-name="Path 67" class="cls-4" d="M244,344.54H137.14l17.01-77.389H261.006Z" transform="translate(-93.342 -267.15)"/>
          </g>
          <g id="Group_60" data-name="Group 60" transform="translate(113.843 262.387)">
            <path id="Path_68" data-name="Path 68" class="cls-9" d="M144.184,233.579s6.509,41.253-15.992,40.342c-22.475-.911-30.484-17.278-28.69-26.948s3.509-28.957,22.85-30.886C141.693,214.131,144.184,233.579,144.184,233.579Z" transform="translate(-86.351 -210.222)"/>
            <path id="Path_69" data-name="Path 69" class="cls-9" d="M110.749,236.5a7.424,7.424,0,1,1-5.947-8.652A7.42,7.42,0,0,1,110.749,236.5Z" transform="translate(-91.784 -190.456)"/>
            <path id="Path_70" data-name="Path 70" class="cls-12" d="M102.208,252.169s5.733-2.223,9.777,1.795c0,0,28.047-6.536,27.752-21.591,0,0,5.733-2.625,11.117-.4,0,0-4.956-24.886-36.833-16.394S98.779,257.1,98.779,257.1,98.833,254.392,102.208,252.169Z" transform="translate(-94.44 -213.811)"/>
            <path id="Path_71" data-name="Path 71" class="cls-9" d="M101.081,230.15l-1.018,5.545s-.134,1.018-.295,2.625c-.214,2.143-.509,5.331-.563,8.6-.08,5.063.348,10.34,2.25,12.215,4.1,3.965,19.957,5.063,22.207,4.1.7-.295,1.152-3.134,1.42-6.884.134-2.009.241-4.232.295-6.509h-.027c.188-6.858.08-13.742.08-13.742Z" transform="translate(-86.456 -186.381)"/>
            <path id="Path_72" data-name="Path 72" class="cls-11" d="M99.753,233.21c-.214,2.143-.509,5.331-.563,8.6,6.215,3.027,18.8,8.786,25.9,9.429.134-2.009.241-4.232.295-6.509h-.027C124.665,244.568,102.4,239.478,99.753,233.21Z" transform="translate(-86.467 -181.244)"/>
          </g>
          <g id="Group_61" data-name="Group 61" transform="translate(166.587 132.813)">
            <path id="Path_73" data-name="Path 73" class="cls-7" d="M224.093,165.44H124.015a9.872,9.872,0,0,0-9.885,9.858v71.5a9.855,9.855,0,0,0,9.885,9.858H129.4V281.4l24.725-24.752h69.969a9.872,9.872,0,0,0,9.885-9.858V175.3A9.889,9.889,0,0,0,224.093,165.44Z" transform="translate(-114.13 -165.44)"/>
            <path id="Path_74" data-name="Path 74" class="cls-3" d="M210.412,173.24l-26.064,7.367,7.259,7.072-13.528,13.93-27.109-19.85-31.1,32.815,4.929,4.688,27-28.475,27.029,19.8,17.653-18.135,7.286,7.072Z" transform="translate(-104.494 -152.346)"/>
          </g>
          <g id="Group_66" data-name="Group 66" transform="translate(310.946)">
            <path id="Path_75" data-name="Path 75" class="cls-3" d="M266.732,165.23a49.356,49.356,0,1,1-49.343-49.37A49.359,49.359,0,0,1,266.732,165.23Z" transform="translate(-168.02 -115.86)"/>
            <g id="Group_63" data-name="Group 63" transform="translate(6.777 7.099)">
              <g id="Group_62" data-name="Group 62">
                <path id="Path_76" data-name="Path 76" class="cls-7" d="M213.116,203.32a46.311,46.311,0,0,1-5.09-.295l.4-3.375a39.653,39.653,0,0,0,9.429,0l.4,3.375A46.15,46.15,0,0,1,213.116,203.32Zm-15.028-2.732a41.373,41.373,0,0,1-9.081-4.768l1.929-2.786a38.218,38.218,0,0,0,8.358,4.366Zm30.163-.027-1.205-3.188a38.68,38.68,0,0,0,8.331-4.393l1.929,2.786A43.1,43.1,0,0,1,228.251,200.561Zm-46.932-11.519a43.309,43.309,0,0,1-5.84-8.411l3-1.58a38.517,38.517,0,0,0,5.384,7.742Zm63.647-.054-2.545-2.25a38.569,38.569,0,0,0,5.358-7.768l3,1.58A40.113,40.113,0,0,1,244.966,188.988Zm-73.157-17.948a43.235,43.235,0,0,1-1.259-10.179h3.4a39.016,39.016,0,0,0,1.152,9.349Zm82.64-.08-3.295-.8a39.217,39.217,0,0,0,1.125-9.376l3.4-.161v.161A43.38,43.38,0,0,1,254.449,170.96Zm-79.372-19.475-3.295-.8a42.3,42.3,0,0,1,3.616-9.59l3,1.58A38.478,38.478,0,0,0,175.077,151.486Zm76.023-.241a38.64,38.64,0,0,0-3.375-8.813l3-1.58a42.251,42.251,0,0,1,3.67,9.563Zm-67.344-16.367-2.545-2.25a43.17,43.17,0,0,1,7.661-6.831l1.929,2.786A40.42,40.42,0,0,0,183.756,134.877Zm58.585-.188a39.236,39.236,0,0,0-7.072-6.242l1.929-2.813a42.008,42.008,0,0,1,7.688,6.777Zm-43.208-10.5-1.205-3.161a41.426,41.426,0,0,1,9.965-2.464l.429,3.375A38.411,38.411,0,0,0,199.132,124.189Zm27.752-.08a39.793,39.793,0,0,0-9.161-2.223l.4-3.375a42.614,42.614,0,0,1,9.965,2.411Z" transform="translate(-170.55 -118.51)"/>
              </g>
            </g>
            <g id="Group_65" data-name="Group 65" transform="translate(45.994 23.278)">
              <g id="Group_64" data-name="Group 64">
                <path id="Path_77" data-name="Path 77" class="cls-7" d="M199.334,173.2,185.19,159.026V124.55h6.8v31.663l12.135,12.162Z" transform="translate(-185.19 -124.55)"/>
              </g>
            </g>
          </g>
        </g>
        <g id="Group_68" data-name="Group 68" transform="translate(456.274 326.595)">
          <path id="Path_78" data-name="Path 78" class="cls-9" d="M236.321,193.07v22.662l-11.733,11.545H202.14V193.07Z" transform="translate(-202.14 -193.07)"/>
          <path id="Path_79" data-name="Path 79" class="cls-11" d="M222.253,201.53,210.52,213.075V201.53Z" transform="translate(-188.072 -178.868)"/>
        </g>
        <g id="Group_70" data-name="Group 70" transform="translate(407.199 293.458)">
          <g id="Group_69" data-name="Group 69">
            <rect id="Rectangle_29" data-name="Rectangle 29" class="cls-3" width="34.181" height="34.181"/>
          </g>
        </g>
        <path id="Path_80" data-name="Path 80" class="cls-7" d="M362.745,119.642A29.332,29.332,0,1,1,333.412,90.31,29.324,29.324,0,0,1,362.745,119.642Z" transform="translate(425.267 -38.985)"/>
        <path id="Path_81" data-name="Path 81" class="cls-7" d="M416.3,436.283a29.332,29.332,0,1,1-29.332-29.332A29.324,29.324,0,0,1,416.3,436.283Z" transform="translate(515.181 492.578)"/>
        <path id="Path_82" data-name="Path 82" class="cls-7" d="M330.223,89.232A18.082,18.082,0,1,1,312.142,71.15,18.074,18.074,0,0,1,330.223,89.232Z" transform="translate(408.445 -71.15)"/>
        <path id="Path_83" data-name="Path 83" class="cls-7" d="M373.783,412.182A18.082,18.082,0,1,1,355.7,394.1,18.074,18.074,0,0,1,373.783,412.182Z" transform="translate(481.572 471.006)"/>
        <g id="Group_72" data-name="Group 72" transform="translate(441.969 415.155)">
          <g id="Group_71" data-name="Group 71" transform="translate(0)">
            <path id="Path_84" data-name="Path 84" class="cls-3" d="M208.785,250.56l1.393,4.929,1.393-4.929a16.038,16.038,0,0,1,7.8-9.751h0a16.186,16.186,0,0,1-7.8-9.751l-1.393-4.929-1.393,4.929a16.038,16.038,0,0,1-7.8,9.751h0A16.186,16.186,0,0,1,208.785,250.56Z" transform="translate(-189.766 -226.13)"/>
            <path id="Path_85" data-name="Path 85" class="cls-3" d="M202.827,254.6l1.071,3.831L205,254.6a12.488,12.488,0,0,1,6.027-7.554h0A12.488,12.488,0,0,1,205,239.491l-1.1-3.831-1.071,3.831a12.488,12.488,0,0,1-6.027,7.554h0A12.563,12.563,0,0,1,202.827,254.6Z" transform="translate(-196.8 -210.131)"/>
          </g>
        </g>
        <g id="Group_74" data-name="Group 74" transform="translate(1107.749 286.36)">
          <g id="Group_73" data-name="Group 73">
            <path id="Path_86" data-name="Path 86" class="cls-3" d="M457.315,202.507l1.393,4.929,1.393-4.929a16.112,16.112,0,0,1,7.8-9.751h0a16.281,16.281,0,0,1-7.8-9.751l-1.393-4.956-1.393,4.956a16.112,16.112,0,0,1-7.8,9.751h0A16.112,16.112,0,0,1,457.315,202.507Z" transform="translate(-438.323 -178.05)"/>
            <path id="Path_87" data-name="Path 87" class="cls-3" d="M451.367,206.529l1.1,3.831,1.072-3.831a12.488,12.488,0,0,1,6.027-7.554h0a12.488,12.488,0,0,1-6.027-7.554l-1.072-3.831-1.1,3.831a12.489,12.489,0,0,1-6.027,7.554h0A12.582,12.582,0,0,1,451.367,206.529Z" transform="translate(-445.34 -162.035)"/>
          </g>
        </g>
        <g id="Group_76" data-name="Group 76" transform="translate(924.843 462.89)">
          <g id="Group_75" data-name="Group 75">
            <path id="Path_88" data-name="Path 88" class="cls-3" d="M390.668,275.4l-1.795,6.349-1.795-6.349a20.657,20.657,0,0,0-10.019-12.537h0A20.876,20.876,0,0,0,387.079,250.3l1.795-6.349,1.795,6.349a20.782,20.782,0,0,0,10.018,12.563h0A20.748,20.748,0,0,0,390.668,275.4Z" transform="translate(-377.06 -243.95)"/>
            <path id="Path_89" data-name="Path 89" class="cls-3" d="M394.978,280.536l-1.393,4.9-1.393-4.9a16.017,16.017,0,0,0-7.742-9.7h0a16.092,16.092,0,0,0,7.742-9.7l1.393-4.9,1.393,4.9a16.018,16.018,0,0,0,7.742,9.7h0A16,16,0,0,0,394.978,280.536Z" transform="translate(-364.654 -223.318)"/>
          </g>
        </g>
        <g id="Group_78" data-name="Group 78" transform="translate(253.652 418.503)">
          <g id="Group_77" data-name="Group 77">
            <path id="Path_90" data-name="Path 90" class="cls-13" d="M137.081,251.81l-1.393,4.956L134.3,251.81a16.112,16.112,0,0,0-7.8-9.751h0a16.28,16.28,0,0,0,7.8-9.751l1.393-4.929,1.393,4.929a16.112,16.112,0,0,0,7.8,9.751h0A16.112,16.112,0,0,0,137.081,251.81Z" transform="translate(-126.5 -227.38)"/>
            <path id="Path_91" data-name="Path 91" class="cls-13" d="M140.427,255.849l-1.072,3.831-1.1-3.831a12.488,12.488,0,0,0-6.027-7.554h0a12.415,12.415,0,0,0,6.027-7.554l1.1-3.831,1.072,3.831a12.488,12.488,0,0,0,6.027,7.554h0A12.582,12.582,0,0,0,140.427,255.849Z" transform="translate(-116.881 -211.381)"/>
          </g>
        </g>
      </g>
    </g>
  </g>
</svg>
